<?xml version="1.0" encoding="UTF-8"?>
<svg xmlns="http://www.w3.org/2000/svg" xmlns:xlink="http://www.w3.org/1999/xlink" width="325pt" height="44pt" viewBox="0 0 325 44" version="1.1">
<g id="surface68">
<path style=" stroke:none;fill-rule:nonzero;fill:rgb(100%,100%,100%);fill-opacity:1;" d="M 0 43.9375 L 0 0.0625 L 325 0.0625 L 325 43.9375 Z M 0 43.9375 "/>
<path style="fill-rule:nonzero;fill:rgb(100%,100%,0%);fill-opacity:1;stroke-width:1;stroke-linecap:butt;stroke-linejoin:miter;stroke:rgb(0%,0%,0%);stroke-opacity:1;stroke-miterlimit:4;" d="M 111.418429 -36.001686 L -0.141097 -36.001686 L -0.141097 0.00168637 L 111.418429 0.00168637 Z M 111.418429 -36.001686 " transform="matrix(0.997085,0,0,0.997085,3.988342,39.947537)"/>
<path style=" stroke:none;fill-rule:nonzero;fill:rgb(0%,0%,0%);fill-opacity:1;" d="M 13.015625 16.175781 L 14.617188 16.175781 L 19.675781 24.289062 L 19.675781 16.175781 L 20.964844 16.175781 L 20.964844 26.191406 L 19.441406 26.191406 L 14.3125 18.085938 L 14.3125 26.191406 L 13.015625 26.191406 Z M 33.648438 20.589844 L 33.648438 21.734375 L 26.539062 21.734375 L 26.539062 20.589844 Z M 33.648438 23.511719 L 33.648438 24.679688 L 26.539062 24.679688 L 26.539062 23.511719 Z M 38.878906 18.890625 L 40.042969 18.890625 L 40.042969 20.152344 C 40.140625 19.910156 40.375 19.609375 40.746094 19.253906 C 41.117188 18.902344 41.546875 18.726562 42.035156 18.726562 C 42.058594 18.726562 42.09375 18.726562 42.148438 18.734375 C 42.203125 18.738281 42.296875 18.746094 42.429688 18.757812 L 42.429688 20.054688 C 42.355469 20.042969 42.289062 20.03125 42.226562 20.027344 C 42.164062 20.023438 42.097656 20.019531 42.027344 20.019531 C 41.410156 20.019531 40.933594 20.21875 40.601562 20.617188 C 40.269531 21.015625 40.105469 21.472656 40.105469 21.992188 L 40.105469 26.191406 L 38.878906 26.191406 Z M 43.488281 18.890625 L 44.65625 18.890625 L 44.65625 19.929688 C 45 19.5 45.367188 19.191406 45.753906 19.007812 C 46.136719 18.820312 46.566406 18.726562 47.042969 18.726562 C 48.078125 18.726562 48.777344 19.085938 49.140625 19.8125 C 49.339844 20.207031 49.441406 20.773438 49.441406 21.507812 L 49.441406 26.191406 L 48.191406 26.191406 L 48.191406 21.589844 C 48.191406 21.144531 48.128906 20.785156 47.996094 20.511719 C 47.777344 20.058594 47.382812 19.832031 46.808594 19.832031 C 46.515625 19.832031 46.277344 19.863281 46.097656 19.921875 C 45.757812 20.019531 45.460938 20.21875 45.207031 20.519531 C 45.003906 20.761719 44.867188 21.011719 44.808594 21.269531 C 44.75 21.523438 44.71875 21.890625 44.71875 22.367188 L 44.71875 26.191406 L 43.488281 26.191406 Z M 54.148438 25.398438 C 54.964844 25.398438 55.519531 25.09375 55.820312 24.476562 C 56.125 23.863281 56.277344 23.175781 56.277344 22.421875 C 56.277344 21.738281 56.167969 21.1875 55.949219 20.757812 C 55.601562 20.082031 55.007812 19.75 54.160156 19.75 C 53.414062 19.75 52.867188 20.035156 52.527344 20.609375 C 52.1875 21.183594 52.015625 21.871094 52.015625 22.679688 C 52.015625 23.457031 52.1875 24.101562 52.527344 24.625 C 52.867188 25.144531 53.410156 25.398438 54.148438 25.398438 Z M 54.195312 18.679688 C 55.136719 18.679688 55.933594 18.992188 56.585938 19.621094 C 57.230469 20.246094 57.558594 21.171875 57.558594 22.390625 C 57.558594 23.566406 57.269531 24.535156 56.699219 25.304688 C 56.125 26.074219 55.238281 26.457031 54.035156 26.457031 C 53.027344 26.457031 52.230469 26.117188 51.640625 25.4375 C 51.050781 24.757812 50.753906 23.847656 50.753906 22.699219 C 50.753906 21.472656 51.066406 20.496094 51.6875 19.773438 C 52.3125 19.042969 53.148438 18.679688 54.195312 18.679688 Z M 59.054688 18.890625 L 60.21875 18.890625 L 60.21875 20.152344 C 60.316406 19.910156 60.550781 19.609375 60.917969 19.253906 C 61.292969 18.902344 61.722656 18.726562 62.207031 18.726562 C 62.230469 18.726562 62.269531 18.726562 62.324219 18.734375 C 62.378906 18.738281 62.472656 18.746094 62.605469 18.757812 L 62.605469 20.054688 C 62.53125 20.042969 62.464844 20.03125 62.402344 20.027344 C 62.339844 20.023438 62.273438 20.019531 62.199219 20.019531 C 61.585938 20.019531 61.109375 20.21875 60.777344 20.617188 C 60.445312 21.015625 60.28125 21.472656 60.28125 21.992188 L 60.28125 26.191406 L 59.054688 26.191406 Z M 63.664062 18.890625 L 64.875 18.890625 L 64.875 19.929688 C 65.167969 19.570312 65.433594 19.304688 65.671875 19.140625 C 66.078125 18.863281 66.53125 18.726562 67.046875 18.726562 C 67.625 18.726562 68.09375 18.867188 68.453125 19.15625 C 68.652344 19.320312 68.832031 19.5625 68.996094 19.882812 C 69.269531 19.488281 69.589844 19.199219 69.957031 19.007812 C 70.324219 18.820312 70.738281 18.726562 71.199219 18.726562 C 72.179688 18.726562 72.84375 19.082031 73.199219 19.792969 C 73.390625 20.171875 73.488281 20.6875 73.488281 21.332031 L 73.488281 26.191406 L 72.214844 26.191406 L 72.214844 21.121094 C 72.214844 20.632812 72.089844 20.296875 71.847656 20.117188 C 71.605469 19.9375 71.308594 19.847656 70.960938 19.847656 C 70.476562 19.847656 70.0625 20.003906 69.714844 20.328125 C 69.367188 20.652344 69.191406 21.191406 69.191406 21.945312 L 69.191406 26.191406 L 67.945312 26.191406 L 67.945312 21.425781 C 67.945312 20.933594 67.886719 20.570312 67.765625 20.339844 C 67.578125 20 67.234375 19.832031 66.726562 19.832031 C 66.261719 19.832031 65.84375 20.007812 65.460938 20.371094 C 65.082031 20.730469 64.890625 21.375 64.890625 22.320312 L 64.890625 26.191406 L 63.664062 26.191406 Z M 78.523438 16.011719 C 77.8125 17.398438 77.347656 18.421875 77.136719 19.074219 C 76.816406 20.066406 76.652344 21.222656 76.652344 22.523438 C 76.652344 23.84375 76.835938 25.046875 77.203125 26.136719 C 77.429688 26.808594 77.878906 27.777344 78.546875 29.042969 L 77.722656 29.042969 C 77.058594 28.007812 76.648438 27.34375 76.488281 27.054688 C 76.328125 26.769531 76.15625 26.382812 75.96875 25.890625 C 75.714844 25.21875 75.535156 24.5 75.441406 23.738281 C 75.390625 23.339844 75.363281 22.964844 75.363281 22.609375 C 75.363281 21.261719 75.574219 20.0625 75.996094 19.011719 C 76.265625 18.347656 76.828125 17.34375 77.675781 16.011719 Z M 80.378906 19.28125 L 80.378906 18.339844 C 81.261719 18.253906 81.882812 18.109375 82.230469 17.90625 C 82.582031 17.703125 82.84375 17.226562 83.015625 16.46875 L 83.984375 16.46875 L 83.984375 26.191406 L 82.675781 26.191406 L 82.675781 19.28125 Z M 90.585938 16.429688 C 91.847656 16.429688 92.761719 16.953125 93.324219 17.992188 C 93.761719 18.792969 93.980469 19.898438 93.980469 21.300781 C 93.980469 22.625 93.78125 23.722656 93.386719 24.589844 C 92.816406 25.832031 91.875 26.457031 90.578125 26.457031 C 89.40625 26.457031 88.535156 25.949219 87.960938 24.929688 C 87.484375 24.078125 87.246094 22.9375 87.246094 21.507812 C 87.246094 20.398438 87.390625 19.449219 87.671875 18.652344 C 88.210938 17.171875 89.179688 16.429688 90.585938 16.429688 Z M 90.570312 25.339844 C 91.207031 25.339844 91.710938 25.058594 92.089844 24.492188 C 92.46875 23.933594 92.660156 22.878906 92.660156 21.34375 C 92.660156 20.234375 92.519531 19.324219 92.246094 18.609375 C 91.972656 17.890625 91.449219 17.535156 90.660156 17.535156 C 89.9375 17.535156 89.410156 17.875 89.074219 18.554688 C 88.742188 19.234375 88.574219 20.230469 88.574219 21.554688 C 88.574219 22.554688 88.683594 23.351562 88.894531 23.957031 C 89.222656 24.878906 89.78125 25.339844 90.570312 25.339844 Z M 98.347656 16.429688 C 99.609375 16.429688 100.523438 16.953125 101.085938 17.992188 C 101.523438 18.792969 101.742188 19.898438 101.742188 21.300781 C 101.742188 22.625 101.542969 23.722656 101.148438 24.589844 C 100.578125 25.832031 99.636719 26.457031 98.339844 26.457031 C 97.167969 26.457031 96.296875 25.949219 95.722656 24.929688 C 95.246094 24.078125 95.007812 22.9375 95.007812 21.507812 C 95.007812 20.398438 95.152344 19.449219 95.4375 18.652344 C 95.972656 17.171875 96.941406 16.429688 98.347656 16.429688 Z M 98.332031 25.339844 C 98.96875 25.339844 99.476562 25.058594 99.851562 24.492188 C 100.230469 23.933594 100.421875 22.878906 100.421875 21.34375 C 100.421875 20.234375 100.28125 19.324219 100.007812 18.609375 C 99.734375 17.890625 99.210938 17.535156 98.421875 17.535156 C 97.699219 17.535156 97.171875 17.875 96.839844 18.554688 C 96.503906 19.234375 96.335938 20.230469 96.335938 21.554688 C 96.335938 22.554688 96.445312 23.351562 96.660156 23.957031 C 96.984375 24.878906 97.542969 25.339844 98.332031 25.339844 Z M 102.816406 29.042969 C 103.542969 27.632812 104.003906 26.605469 104.214844 25.957031 C 104.535156 24.984375 104.695312 23.839844 104.695312 22.523438 C 104.695312 21.210938 104.507812 20.007812 104.140625 18.917969 C 103.914062 18.246094 103.464844 17.28125 102.796875 16.011719 L 103.621094 16.011719 C 104.320312 17.132812 104.746094 17.820312 104.894531 18.082031 C 105.039062 18.34375 105.199219 18.703125 105.371094 19.164062 C 105.589844 19.734375 105.746094 20.292969 105.839844 20.847656 C 105.933594 21.398438 105.980469 21.933594 105.980469 22.449219 C 105.980469 23.792969 105.765625 24.996094 105.339844 26.046875 C 105.070312 26.722656 104.515625 27.722656 103.667969 29.042969 Z M 11.953125 15.441406 "/>
<path style="fill-rule:nonzero;fill:rgb(100%,100%,0%);fill-opacity:1;stroke-width:1;stroke-linecap:butt;stroke-linejoin:miter;stroke:rgb(0%,0%,0%);stroke-opacity:1;stroke-miterlimit:4;" d="M 225.630217 -36.001686 L 147.159318 -36.001686 L 147.159318 0.00168637 L 225.630217 0.00168637 Z M 225.630217 -36.001686 " transform="matrix(0.997085,0,0,0.997085,3.988342,39.947537)"/>
<path style=" stroke:none;fill-rule:nonzero;fill:rgb(0%,0%,0%);fill-opacity:1;" d="M 162.324219 16.175781 L 169.621094 16.175781 L 169.621094 17.402344 L 163.648438 17.402344 L 163.648438 20.445312 L 169.171875 20.445312 L 169.171875 21.601562 L 163.648438 21.601562 L 163.648438 25 L 169.726562 25 L 169.726562 26.191406 L 162.324219 26.191406 Z M 174.15625 18.679688 C 174.976562 18.679688 175.648438 18.878906 176.160156 19.28125 C 176.679688 19.679688 176.988281 20.367188 177.089844 21.34375 L 175.898438 21.34375 C 175.824219 20.894531 175.660156 20.519531 175.402344 20.222656 C 175.144531 19.929688 174.726562 19.777344 174.15625 19.777344 C 173.371094 19.777344 172.816406 20.15625 172.476562 20.921875 C 172.257812 21.414062 172.148438 22.027344 172.148438 22.753906 C 172.148438 23.488281 172.304688 24.101562 172.613281 24.601562 C 172.925781 25.101562 173.40625 25.351562 174.074219 25.351562 C 174.582031 25.351562 174.984375 25.199219 175.28125 24.886719 C 175.582031 24.574219 175.785156 24.148438 175.898438 23.609375 L 177.089844 23.609375 C 176.957031 24.574219 176.617188 25.285156 176.070312 25.730469 C 175.527344 26.179688 174.824219 26.402344 173.976562 26.402344 C 173.023438 26.402344 172.261719 26.054688 171.695312 25.355469 C 171.125 24.660156 170.839844 23.789062 170.839844 22.738281 C 170.839844 21.457031 171.152344 20.460938 171.773438 19.75 C 172.398438 19.035156 173.1875 18.679688 174.15625 18.679688 Z M 179.546875 18.890625 L 179.546875 23.738281 C 179.546875 24.109375 179.605469 24.414062 179.726562 24.648438 C 179.941406 25.085938 180.347656 25.304688 180.945312 25.304688 C 181.796875 25.304688 182.378906 24.921875 182.6875 24.15625 C 182.855469 23.75 182.941406 23.1875 182.941406 22.476562 L 182.941406 18.890625 L 184.164062 18.890625 L 184.164062 26.191406 L 183.007812 26.191406 L 183.019531 25.117188 C 182.863281 25.390625 182.664062 25.625 182.425781 25.816406 C 181.960938 26.199219 181.390625 26.390625 180.726562 26.390625 C 179.6875 26.390625 178.976562 26.042969 178.597656 25.34375 C 178.394531 24.972656 178.292969 24.476562 178.292969 23.855469 L 178.292969 18.890625 Z M 187.023438 24.246094 C 187.023438 24.601562 187.15625 24.882812 187.414062 25.085938 C 187.675781 25.292969 187.980469 25.390625 188.332031 25.390625 C 188.765625 25.390625 189.183594 25.296875 189.585938 25.09375 C 190.269531 24.761719 190.609375 24.21875 190.609375 23.464844 L 190.609375 22.476562 C 190.457031 22.574219 190.269531 22.652344 190.03125 22.714844 C 189.796875 22.777344 189.5625 22.824219 189.335938 22.847656 L 188.59375 22.945312 C 188.148438 23.003906 187.8125 23.097656 187.59375 23.226562 C 187.214844 23.441406 187.023438 23.78125 187.023438 24.246094 Z M 190 21.765625 C 190.28125 21.730469 190.464844 21.613281 190.5625 21.410156 C 190.617188 21.304688 190.644531 21.148438 190.644531 20.941406 C 190.644531 20.523438 190.496094 20.21875 190.199219 20.03125 C 189.902344 19.84375 189.472656 19.75 188.921875 19.75 C 188.277344 19.75 187.824219 19.925781 187.558594 20.265625 C 187.40625 20.457031 187.308594 20.742188 187.265625 21.121094 L 186.121094 21.121094 C 186.144531 20.21875 186.433594 19.59375 186.996094 19.242188 C 187.558594 18.890625 188.207031 18.710938 188.949219 18.710938 C 189.804688 18.710938 190.503906 18.875 191.039062 19.203125 C 191.574219 19.53125 191.835938 20.039062 191.835938 20.730469 L 191.835938 24.9375 C 191.835938 25.066406 191.863281 25.167969 191.914062 25.246094 C 191.96875 25.324219 192.078125 25.355469 192.246094 25.355469 C 192.300781 25.355469 192.363281 25.355469 192.429688 25.347656 C 192.5 25.339844 192.570312 25.335938 192.648438 25.320312 L 192.648438 26.226562 C 192.457031 26.28125 192.3125 26.316406 192.210938 26.328125 C 192.109375 26.339844 191.976562 26.347656 191.800781 26.347656 C 191.382812 26.347656 191.074219 26.199219 190.882812 25.898438 C 190.78125 25.738281 190.710938 25.511719 190.671875 25.226562 C 190.425781 25.550781 190.0625 25.832031 189.59375 26.074219 C 189.125 26.316406 188.613281 26.4375 188.046875 26.4375 C 187.371094 26.4375 186.816406 26.230469 186.390625 25.820312 C 185.960938 25.40625 185.746094 24.894531 185.746094 24.273438 C 185.746094 23.597656 185.957031 23.074219 186.378906 22.699219 C 186.800781 22.328125 187.355469 22.097656 188.039062 22.011719 Z M 196.664062 18.679688 C 197.484375 18.679688 198.15625 18.878906 198.667969 19.28125 C 199.1875 19.679688 199.496094 20.367188 199.601562 21.34375 L 198.410156 21.34375 C 198.335938 20.894531 198.167969 20.519531 197.910156 20.222656 C 197.652344 19.929688 197.234375 19.777344 196.664062 19.777344 C 195.878906 19.777344 195.324219 20.15625 194.984375 20.921875 C 194.765625 21.414062 194.65625 22.027344 194.65625 22.753906 C 194.65625 23.488281 194.8125 24.101562 195.121094 24.601562 C 195.433594 25.101562 195.914062 25.351562 196.582031 25.351562 C 197.09375 25.351562 197.492188 25.199219 197.789062 24.886719 C 198.089844 24.574219 198.296875 24.148438 198.410156 23.609375 L 199.601562 23.609375 C 199.464844 24.574219 199.125 25.285156 198.578125 25.730469 C 198.035156 26.179688 197.332031 26.402344 196.484375 26.402344 C 195.53125 26.402344 194.769531 26.054688 194.203125 25.355469 C 193.632812 24.660156 193.347656 23.789062 193.347656 22.738281 C 193.347656 21.457031 193.660156 20.460938 194.285156 19.75 C 194.90625 19.035156 195.699219 18.679688 196.664062 18.679688 Z M 200.828125 18.921875 L 202.074219 18.921875 L 202.074219 26.191406 L 200.828125 26.191406 Z M 200.828125 16.175781 L 202.074219 16.175781 L 202.074219 17.566406 L 200.828125 17.566406 Z M 206.824219 25.398438 C 207.640625 25.398438 208.195312 25.09375 208.496094 24.476562 C 208.800781 23.863281 208.953125 23.175781 208.953125 22.421875 C 208.953125 21.738281 208.84375 21.1875 208.625 20.757812 C 208.277344 20.082031 207.683594 19.75 206.835938 19.75 C 206.089844 19.75 205.542969 20.035156 205.199219 20.609375 C 204.863281 21.183594 204.691406 21.871094 204.691406 22.679688 C 204.691406 23.457031 204.863281 24.101562 205.199219 24.625 C 205.542969 25.144531 206.085938 25.398438 206.824219 25.398438 Z M 206.871094 18.679688 C 207.808594 18.679688 208.609375 18.992188 209.257812 19.621094 C 209.90625 20.246094 210.234375 21.171875 210.234375 22.390625 C 210.234375 23.566406 209.945312 24.535156 209.371094 25.304688 C 208.800781 26.074219 207.910156 26.457031 206.707031 26.457031 C 205.703125 26.457031 204.90625 26.117188 204.316406 25.4375 C 203.726562 24.757812 203.429688 23.847656 203.429688 22.699219 C 203.429688 21.472656 203.742188 20.496094 204.363281 19.773438 C 204.988281 19.042969 205.824219 18.679688 206.871094 18.679688 Z M 208.296875 15.957031 L 206.476562 17.921875 L 205.535156 17.921875 L 206.78125 15.957031 Z M 211.691406 18.890625 L 212.855469 18.890625 L 212.855469 19.929688 C 213.199219 19.5 213.566406 19.191406 213.953125 19.007812 C 214.339844 18.820312 214.765625 18.726562 215.242188 18.726562 C 216.277344 18.726562 216.976562 19.085938 217.339844 19.8125 C 217.539062 20.207031 217.640625 20.773438 217.640625 21.507812 L 217.640625 26.191406 L 216.390625 26.191406 L 216.390625 21.589844 C 216.390625 21.144531 216.328125 20.785156 216.195312 20.511719 C 215.976562 20.058594 215.582031 19.832031 215.007812 19.832031 C 214.714844 19.832031 214.480469 19.863281 214.296875 19.921875 C 213.957031 20.019531 213.660156 20.21875 213.40625 20.519531 C 213.203125 20.761719 213.070312 21.011719 213.011719 21.269531 C 212.949219 21.523438 212.917969 21.890625 212.917969 22.367188 L 212.917969 26.191406 L 211.691406 26.191406 Z M 161.128906 15.441406 "/>
<path style="fill:none;stroke-width:1;stroke-linecap:butt;stroke-linejoin:miter;stroke:rgb(0%,0%,0%);stroke-opacity:1;stroke-miterlimit:4;" d="M 111.469359 -18 C 119.864922 -18 128.475957 -18 136.730485 -18 " transform="matrix(0.997085,0,0,0.997085,3.988342,39.947537)"/>
<path style="fill-rule:nonzero;fill:rgb(0%,0%,0%);fill-opacity:1;stroke-width:1;stroke-linecap:butt;stroke-linejoin:miter;stroke:rgb(0%,0%,0%);stroke-opacity:1;stroke-miterlimit:4;" d="M 136.949874 -21.498478 L 146.951682 -18 L 136.949874 -14.501522 Z M 136.949874 -21.498478 " transform="matrix(0.997085,0,0,0.997085,3.988342,39.947537)"/>
<path style="fill-rule:nonzero;fill:rgb(100%,100%,0%);fill-opacity:1;stroke-width:1;stroke-linecap:butt;stroke-linejoin:miter;stroke:rgb(0%,0%,0%);stroke-opacity:1;stroke-miterlimit:4;" d="M 318.169462 -36.001686 L 261.292752 -36.001686 L 261.292752 0.00168637 L 318.169462 0.00168637 Z M 318.169462 -36.001686 " transform="matrix(0.997085,0,0,0.997085,3.988342,39.947537)"/>
<path style=" stroke:none;fill-rule:nonzero;fill:rgb(0%,0%,0%);fill-opacity:1;" d="M 273.609375 16.140625 L 274.835938 16.140625 L 274.835938 19.882812 C 275.128906 19.511719 275.390625 19.25 275.621094 19.101562 C 276.015625 18.84375 276.507812 18.710938 277.101562 18.710938 C 278.160156 18.710938 278.875 19.082031 279.253906 19.828125 C 279.457031 20.230469 279.5625 20.789062 279.5625 21.507812 L 279.5625 26.191406 L 278.300781 26.191406 L 278.300781 21.589844 C 278.300781 21.054688 278.234375 20.660156 278.09375 20.410156 C 277.871094 20.007812 277.453125 19.8125 276.839844 19.8125 C 276.332031 19.8125 275.871094 19.988281 275.457031 20.335938 C 275.042969 20.6875 274.835938 21.34375 274.835938 22.320312 L 274.835938 26.191406 L 273.609375 26.191406 Z M 281.371094 18.921875 L 282.621094 18.921875 L 282.621094 26.191406 L 281.371094 26.191406 Z M 281.371094 16.175781 L 282.621094 16.175781 L 282.621094 17.566406 L 281.371094 17.566406 Z M 285.207031 23.902344 C 285.246094 24.308594 285.34375 24.625 285.511719 24.84375 C 285.820312 25.238281 286.359375 25.433594 287.121094 25.433594 C 287.578125 25.433594 287.976562 25.335938 288.320312 25.140625 C 288.667969 24.941406 288.839844 24.632812 288.839844 24.21875 C 288.839844 23.910156 288.699219 23.667969 288.421875 23.503906 C 288.246094 23.40625 287.898438 23.289062 287.375 23.15625 L 286.398438 22.910156 C 285.773438 22.753906 285.316406 22.585938 285.023438 22.394531 C 284.496094 22.0625 284.230469 21.601562 284.230469 21.019531 C 284.230469 20.324219 284.480469 19.769531 284.980469 19.339844 C 285.476562 18.914062 286.144531 18.699219 286.984375 18.699219 C 288.082031 18.699219 288.878906 19.023438 289.363281 19.667969 C 289.667969 20.074219 289.816406 20.515625 289.808594 20.992188 L 288.648438 20.992188 C 288.625 20.714844 288.527344 20.460938 288.355469 20.230469 C 288.070312 19.914062 287.585938 19.75 286.886719 19.75 C 286.425781 19.75 286.074219 19.839844 285.835938 20.011719 C 285.597656 20.191406 285.476562 20.425781 285.476562 20.71875 C 285.476562 21.035156 285.632812 21.292969 285.949219 21.480469 C 286.132812 21.59375 286.398438 21.695312 286.753906 21.78125 L 287.566406 21.976562 C 288.445312 22.191406 289.039062 22.398438 289.335938 22.601562 C 289.8125 22.910156 290.050781 23.40625 290.050781 24.078125 C 290.050781 24.726562 289.804688 25.289062 289.316406 25.761719 C 288.820312 26.234375 288.066406 26.472656 287.058594 26.472656 C 285.972656 26.472656 285.207031 26.222656 284.753906 25.730469 C 284.300781 25.238281 284.058594 24.628906 284.027344 23.902344 Z M 291.703125 16.851562 L 292.941406 16.851562 L 292.941406 18.890625 L 294.109375 18.890625 L 294.109375 19.894531 L 292.941406 19.894531 L 292.941406 24.65625 C 292.941406 24.914062 293.03125 25.082031 293.203125 25.171875 C 293.300781 25.21875 293.453125 25.246094 293.679688 25.246094 C 293.738281 25.246094 293.800781 25.242188 293.867188 25.242188 C 293.9375 25.238281 294.015625 25.234375 294.109375 25.226562 L 294.109375 26.191406 C 293.96875 26.230469 293.820312 26.261719 293.667969 26.28125 C 293.515625 26.300781 293.351562 26.308594 293.175781 26.308594 C 292.601562 26.308594 292.210938 26.160156 292.007812 25.867188 C 291.804688 25.574219 291.703125 25.195312 291.703125 24.726562 L 291.703125 19.894531 L 290.710938 19.894531 L 290.710938 18.890625 L 291.703125 18.890625 Z M 298.5625 16.011719 C 297.847656 17.398438 297.382812 18.421875 297.175781 19.074219 C 296.851562 20.066406 296.6875 21.222656 296.6875 22.523438 C 296.6875 23.84375 296.871094 25.046875 297.242188 26.136719 C 297.464844 26.808594 297.914062 27.777344 298.585938 29.042969 L 297.757812 29.042969 C 297.097656 28.007812 296.683594 27.34375 296.523438 27.054688 C 296.363281 26.769531 296.191406 26.382812 296.003906 25.890625 C 295.753906 25.21875 295.574219 24.5 295.476562 23.738281 C 295.425781 23.339844 295.398438 22.964844 295.398438 22.609375 C 295.398438 21.261719 295.613281 20.0625 296.03125 19.011719 C 296.300781 18.347656 296.863281 17.34375 297.710938 16.011719 Z M 301.007812 26.191406 L 299.371094 26.191406 L 302.953125 21.058594 L 299.59375 16.175781 L 301.292969 16.175781 L 303.847656 20.007812 L 306.382812 16.175781 L 308 16.175781 L 304.636719 21.058594 L 308.160156 26.191406 L 306.480469 26.191406 L 303.78125 22.074219 Z M 308.875 29.042969 C 309.597656 27.632812 310.0625 26.605469 310.273438 25.957031 C 310.59375 24.984375 310.75 23.839844 310.75 22.523438 C 310.75 21.210938 310.566406 20.007812 310.199219 18.917969 C 309.972656 18.246094 309.519531 17.28125 308.855469 16.011719 L 309.679688 16.011719 C 310.378906 17.132812 310.800781 17.820312 310.949219 18.082031 C 311.097656 18.34375 311.257812 18.703125 311.429688 19.164062 C 311.648438 19.734375 311.804688 20.292969 311.898438 20.847656 C 311.992188 21.398438 312.035156 21.933594 312.035156 22.449219 C 312.035156 23.792969 311.824219 24.996094 311.398438 26.046875 C 311.128906 26.722656 310.574219 27.722656 309.726562 29.042969 Z M 272.710938 15.441406 "/>
<path style="fill:none;stroke-width:1;stroke-linecap:butt;stroke-linejoin:miter;stroke:rgb(0%,0%,0%);stroke-opacity:1;stroke-miterlimit:4;" d="M 225.755582 -18 C 234.100216 -18 242.895381 -18 251.204756 -18 " transform="matrix(0.997085,0,0,0.997085,3.988342,39.947537)"/>
<path style="fill-rule:nonzero;fill:rgb(0%,0%,0%);fill-opacity:1;stroke-width:1;stroke-linecap:butt;stroke-linejoin:miter;stroke:rgb(0%,0%,0%);stroke-opacity:1;stroke-miterlimit:4;" d="M 251.400639 -21.498478 L 261.402447 -18 L 251.400639 -14.501522 Z M 251.400639 -21.498478 " transform="matrix(0.997085,0,0,0.997085,3.988342,39.947537)"/>
</g>
</svg>
