<?xml version="1.0" encoding="UTF-8"?>
<svg xmlns="http://www.w3.org/2000/svg" xmlns:xlink="http://www.w3.org/1999/xlink" width="303pt" height="44pt" viewBox="0 0 303 44" version="1.1">
<g id="surface1">
<path style=" stroke:none;fill-rule:nonzero;fill:rgb(100%,100%,100%);fill-opacity:1;" d="M 0 43.996094 L 0 0.00390625 L 302.996094 0.00390625 L 302.996094 43.996094 Z M 0 43.996094 "/>
<path style="fill-rule:nonzero;fill:rgb(67.843139%,84.705883%,90.196079%);fill-opacity:1;stroke-width:1;stroke-linecap:butt;stroke-linejoin:miter;stroke:rgb(0%,0%,0%);stroke-opacity:1;stroke-miterlimit:4;" d="M 74.511679 -36.001782 L -0.171496 -36.001782 L -0.171496 0.00178211 L 74.511679 0.00178211 Z M 74.511679 -36.001782 " transform="matrix(0.999901,0,0,0.999901,3.999604,39.998218)"/>
<path style=" stroke:none;fill-rule:nonzero;fill:rgb(0%,0%,0%);fill-opacity:1;" d="M 14.363281 16.15625 L 17.246094 24.707031 L 20.09375 16.15625 L 21.617188 16.15625 L 17.957031 26.199219 L 16.515625 26.199219 L 12.859375 16.15625 Z M 22.648438 24.25 C 22.648438 24.605469 22.78125 24.886719 23.039062 25.089844 C 23.300781 25.296875 23.609375 25.398438 23.960938 25.398438 C 24.394531 25.398438 24.816406 25.300781 25.21875 25.097656 C 25.902344 24.765625 26.246094 24.222656 26.246094 23.464844 L 26.246094 22.472656 C 26.09375 22.570312 25.902344 22.648438 25.664062 22.714844 C 25.429688 22.777344 25.195312 22.824219 24.96875 22.847656 L 24.222656 22.945312 C 23.777344 23.003906 23.441406 23.097656 23.21875 23.226562 C 22.839844 23.441406 22.648438 23.78125 22.648438 24.25 Z M 25.632812 21.761719 C 25.914062 21.726562 26.101562 21.609375 26.199219 21.40625 C 26.253906 21.296875 26.28125 21.140625 26.28125 20.933594 C 26.28125 20.515625 26.132812 20.210938 25.832031 20.023438 C 25.535156 19.832031 25.105469 19.738281 24.550781 19.738281 C 23.90625 19.738281 23.453125 19.914062 23.183594 20.257812 C 23.03125 20.449219 22.933594 20.734375 22.890625 21.113281 L 21.742188 21.113281 C 21.765625 20.210938 22.058594 19.582031 22.621094 19.230469 C 23.183594 18.878906 23.835938 18.699219 24.578125 18.699219 C 25.4375 18.699219 26.140625 18.863281 26.675781 19.191406 C 27.210938 19.519531 27.476562 20.03125 27.476562 20.722656 L 27.476562 24.941406 C 27.476562 25.070312 27.503906 25.171875 27.554688 25.25 C 27.609375 25.328125 27.71875 25.363281 27.886719 25.363281 C 27.941406 25.363281 28.003906 25.363281 28.070312 25.355469 C 28.140625 25.347656 28.210938 25.339844 28.289062 25.324219 L 28.289062 26.234375 C 28.097656 26.289062 27.953125 26.324219 27.851562 26.335938 C 27.75 26.347656 27.617188 26.355469 27.441406 26.355469 C 27.019531 26.355469 26.710938 26.207031 26.519531 25.90625 C 26.417969 25.746094 26.347656 25.519531 26.308594 25.230469 C 26.058594 25.558594 25.695312 25.839844 25.226562 26.082031 C 24.757812 26.324219 24.242188 26.445312 23.675781 26.445312 C 22.996094 26.445312 22.441406 26.238281 22.011719 25.828125 C 21.582031 25.414062 21.367188 24.898438 21.367188 24.277344 C 21.367188 23.597656 21.578125 23.074219 22 22.699219 C 22.425781 22.324219 22.980469 22.09375 23.667969 22.007812 Z M 29.527344 18.878906 L 30.695312 18.878906 L 30.695312 20.144531 C 30.792969 19.898438 31.027344 19.597656 31.398438 19.242188 C 31.773438 18.890625 32.203125 18.714844 32.691406 18.714844 C 32.714844 18.714844 32.753906 18.714844 32.808594 18.722656 C 32.863281 18.726562 32.957031 18.734375 33.089844 18.746094 L 33.089844 20.046875 C 33.015625 20.035156 32.949219 20.023438 32.886719 20.019531 C 32.824219 20.015625 32.757812 20.011719 32.683594 20.011719 C 32.066406 20.011719 31.589844 20.210938 31.253906 20.609375 C 30.921875 21.007812 30.757812 21.46875 30.757812 21.988281 L 30.757812 26.199219 L 29.527344 26.199219 Z M 34.15625 18.910156 L 35.40625 18.910156 L 35.40625 26.199219 L 34.15625 26.199219 Z M 34.15625 16.15625 L 35.40625 16.15625 L 35.40625 17.550781 L 34.15625 17.550781 Z M 38.207031 24.25 C 38.207031 24.605469 38.339844 24.886719 38.597656 25.089844 C 38.859375 25.296875 39.167969 25.398438 39.519531 25.398438 C 39.953125 25.398438 40.375 25.300781 40.777344 25.097656 C 41.460938 24.765625 41.804688 24.222656 41.804688 23.464844 L 41.804688 22.472656 C 41.652344 22.570312 41.460938 22.648438 41.222656 22.714844 C 40.988281 22.777344 40.753906 22.824219 40.527344 22.847656 L 39.78125 22.945312 C 39.335938 23.003906 39 23.097656 38.777344 23.226562 C 38.398438 23.441406 38.207031 23.78125 38.207031 24.25 Z M 41.191406 21.761719 C 41.472656 21.726562 41.660156 21.609375 41.757812 21.40625 C 41.8125 21.296875 41.839844 21.140625 41.839844 20.933594 C 41.839844 20.515625 41.691406 20.210938 41.390625 20.023438 C 41.09375 19.832031 40.664062 19.738281 40.109375 19.738281 C 39.464844 19.738281 39.011719 19.914062 38.742188 20.257812 C 38.589844 20.449219 38.492188 20.734375 38.449219 21.113281 L 37.300781 21.113281 C 37.324219 20.210938 37.617188 19.582031 38.179688 19.230469 C 38.742188 18.878906 39.394531 18.699219 40.136719 18.699219 C 40.996094 18.699219 41.699219 18.863281 42.234375 19.191406 C 42.769531 19.519531 43.035156 20.03125 43.035156 20.722656 L 43.035156 24.941406 C 43.035156 25.070312 43.0625 25.171875 43.113281 25.25 C 43.167969 25.328125 43.277344 25.363281 43.445312 25.363281 C 43.5 25.363281 43.5625 25.363281 43.628906 25.355469 C 43.699219 25.347656 43.769531 25.339844 43.847656 25.324219 L 43.847656 26.234375 C 43.65625 26.289062 43.511719 26.324219 43.410156 26.335938 C 43.308594 26.347656 43.175781 26.355469 43 26.355469 C 42.578125 26.355469 42.269531 26.207031 42.078125 25.90625 C 41.976562 25.746094 41.90625 25.519531 41.867188 25.230469 C 41.617188 25.558594 41.253906 25.839844 40.785156 26.082031 C 40.316406 26.324219 39.800781 26.445312 39.234375 26.445312 C 38.554688 26.445312 38 26.238281 37.570312 25.828125 C 37.140625 25.414062 36.925781 24.898438 36.925781 24.277344 C 36.925781 23.597656 37.136719 23.074219 37.558594 22.699219 C 37.984375 22.324219 38.539062 22.09375 39.226562 22.007812 Z M 44.957031 16.121094 L 46.15625 16.121094 L 46.15625 19.765625 C 46.425781 19.414062 46.746094 19.148438 47.121094 18.964844 C 47.492188 18.777344 47.898438 18.6875 48.335938 18.6875 C 49.246094 18.6875 49.988281 19 50.554688 19.625 C 51.121094 20.253906 51.40625 21.175781 51.40625 22.398438 C 51.40625 23.554688 51.125 24.519531 50.566406 25.285156 C 50.003906 26.050781 49.226562 26.433594 48.234375 26.433594 C 47.675781 26.433594 47.207031 26.296875 46.824219 26.027344 C 46.597656 25.867188 46.355469 25.613281 46.09375 25.261719 L 46.09375 26.199219 L 44.957031 26.199219 Z M 48.160156 25.34375 C 48.824219 25.34375 49.320312 25.082031 49.652344 24.550781 C 49.980469 24.023438 50.148438 23.324219 50.148438 22.460938 C 50.148438 21.691406 49.980469 21.050781 49.652344 20.546875 C 49.320312 20.039062 48.835938 19.785156 48.191406 19.785156 C 47.632812 19.785156 47.140625 19.996094 46.71875 20.410156 C 46.296875 20.824219 46.085938 21.507812 46.085938 22.460938 C 46.085938 23.148438 46.171875 23.707031 46.347656 24.136719 C 46.671875 24.941406 47.273438 25.34375 48.160156 25.34375 Z M 52.875 16.15625 L 54.105469 16.15625 L 54.105469 26.199219 L 52.875 26.199219 Z M 59 18.714844 C 59.515625 18.714844 60.015625 18.835938 60.503906 19.078125 C 60.992188 19.324219 61.363281 19.640625 61.621094 20.027344 C 61.867188 20.394531 62.027344 20.824219 62.113281 21.316406 C 62.183594 21.65625 62.222656 22.191406 62.222656 22.933594 L 56.859375 22.933594 C 56.882812 23.675781 57.054688 24.269531 57.382812 24.71875 C 57.710938 25.167969 58.222656 25.394531 58.910156 25.394531 C 59.546875 25.394531 60.058594 25.179688 60.441406 24.757812 C 60.660156 24.511719 60.816406 24.226562 60.910156 23.902344 L 62.117188 23.902344 C 62.085938 24.171875 61.980469 24.472656 61.800781 24.800781 C 61.621094 25.132812 61.417969 25.402344 61.195312 25.613281 C 60.820312 25.976562 60.359375 26.222656 59.808594 26.347656 C 59.511719 26.421875 59.179688 26.457031 58.804688 26.457031 C 57.894531 26.457031 57.121094 26.128906 56.488281 25.464844 C 55.855469 24.800781 55.539062 23.871094 55.539062 22.679688 C 55.539062 21.503906 55.859375 20.546875 56.496094 19.816406 C 57.132812 19.082031 57.96875 18.714844 59 18.714844 Z M 60.957031 21.953125 C 60.90625 21.421875 60.789062 20.996094 60.605469 20.675781 C 60.269531 20.082031 59.707031 19.785156 58.921875 19.785156 C 58.359375 19.785156 57.882812 19.992188 57.5 20.398438 C 57.117188 20.808594 56.914062 21.324219 56.890625 21.953125 Z M 64.460938 23.902344 C 64.5 24.3125 64.601562 24.628906 64.769531 24.847656 C 65.078125 25.242188 65.617188 25.441406 66.382812 25.441406 C 66.839844 25.441406 67.238281 25.339844 67.585938 25.144531 C 67.933594 24.945312 68.105469 24.636719 68.105469 24.222656 C 68.105469 23.910156 67.964844 23.667969 67.6875 23.503906 C 67.511719 23.40625 67.160156 23.289062 66.636719 23.15625 L 65.65625 22.910156 C 65.03125 22.753906 64.574219 22.582031 64.277344 22.390625 C 63.75 22.058594 63.484375 21.597656 63.484375 21.011719 C 63.484375 20.316406 63.734375 19.757812 64.234375 19.328125 C 64.734375 18.902344 65.402344 18.6875 66.246094 18.6875 C 67.347656 18.6875 68.144531 19.011719 68.632812 19.65625 C 68.9375 20.066406 69.085938 20.507812 69.078125 20.984375 L 67.914062 20.984375 C 67.890625 20.707031 67.792969 20.453125 67.621094 20.222656 C 67.335938 19.902344 66.847656 19.738281 66.148438 19.738281 C 65.683594 19.738281 65.332031 19.828125 65.09375 20.003906 C 64.855469 20.183594 64.734375 20.417969 64.734375 20.710938 C 64.734375 21.027344 64.890625 21.285156 65.207031 21.476562 C 65.390625 21.589844 65.65625 21.691406 66.015625 21.777344 L 66.828125 21.972656 C 67.710938 22.1875 68.304688 22.394531 68.605469 22.597656 C 69.082031 22.910156 69.320312 23.40625 69.320312 24.082031 C 69.320312 24.730469 69.074219 25.292969 68.582031 25.769531 C 68.085938 26.242188 67.332031 26.480469 66.320312 26.480469 C 65.230469 26.480469 64.460938 26.230469 64.007812 25.738281 C 63.554688 25.242188 63.3125 24.632812 63.28125 23.902344 Z M 12.503906 15.417969 "/>
<path style="fill-rule:nonzero;fill:rgb(67.843139%,84.705883%,90.196079%);fill-opacity:1;stroke-width:1;stroke-linecap:butt;stroke-linejoin:miter;stroke:rgb(0%,0%,0%);stroke-opacity:1;stroke-miterlimit:4;" d="M 172.841725 -36.001782 L 110.50743 -36.001782 L 110.50743 0.00178211 L 172.841725 0.00178211 Z M 172.841725 -36.001782 " transform="matrix(0.999901,0,0,0.999901,3.999604,39.998218)"/>
<path style=" stroke:none;fill-rule:nonzero;fill:rgb(0%,0%,0%);fill-opacity:1;" d="M 127.613281 15.882812 C 128.886719 15.882812 129.871094 16.21875 130.574219 16.886719 C 131.277344 17.558594 131.664062 18.320312 131.742188 19.171875 L 130.417969 19.171875 C 130.265625 18.523438 129.96875 18.011719 129.519531 17.632812 C 129.070312 17.253906 128.4375 17.066406 127.628906 17.066406 C 126.640625 17.066406 125.839844 17.414062 125.230469 18.109375 C 124.621094 18.804688 124.320312 19.871094 124.320312 21.304688 C 124.320312 22.480469 124.59375 23.433594 125.144531 24.164062 C 125.691406 24.894531 126.511719 25.261719 127.601562 25.261719 C 128.605469 25.261719 129.367188 24.878906 129.890625 24.105469 C 130.167969 23.699219 130.375 23.167969 130.511719 22.507812 L 131.839844 22.507812 C 131.722656 23.566406 131.328125 24.453125 130.664062 25.167969 C 129.867188 26.027344 128.789062 26.457031 127.4375 26.457031 C 126.269531 26.457031 125.289062 26.105469 124.496094 25.398438 C 123.453125 24.464844 122.933594 23.023438 122.933594 21.074219 C 122.933594 19.589844 123.324219 18.375 124.105469 17.429688 C 124.953125 16.398438 126.125 15.882812 127.613281 15.882812 Z M 134.269531 24.25 C 134.269531 24.605469 134.402344 24.886719 134.660156 25.089844 C 134.921875 25.296875 135.230469 25.398438 135.582031 25.398438 C 136.015625 25.398438 136.4375 25.300781 136.839844 25.097656 C 137.523438 24.765625 137.867188 24.222656 137.867188 23.464844 L 137.867188 22.472656 C 137.714844 22.570312 137.523438 22.648438 137.285156 22.714844 C 137.050781 22.777344 136.816406 22.824219 136.589844 22.847656 L 135.84375 22.945312 C 135.398438 23.003906 135.0625 23.097656 134.839844 23.226562 C 134.460938 23.441406 134.269531 23.78125 134.269531 24.25 Z M 137.253906 21.761719 C 137.535156 21.726562 137.722656 21.609375 137.820312 21.40625 C 137.875 21.296875 137.902344 21.140625 137.902344 20.933594 C 137.902344 20.515625 137.753906 20.210938 137.453125 20.023438 C 137.15625 19.832031 136.726562 19.738281 136.171875 19.738281 C 135.527344 19.738281 135.074219 19.914062 134.804688 20.257812 C 134.652344 20.449219 134.554688 20.734375 134.511719 21.113281 L 133.363281 21.113281 C 133.386719 20.210938 133.679688 19.582031 134.242188 19.230469 C 134.804688 18.878906 135.457031 18.699219 136.199219 18.699219 C 137.058594 18.699219 137.761719 18.863281 138.292969 19.191406 C 138.828125 19.519531 139.09375 20.03125 139.09375 20.722656 L 139.09375 24.941406 C 139.09375 25.070312 139.121094 25.171875 139.171875 25.25 C 139.226562 25.328125 139.335938 25.363281 139.503906 25.363281 C 139.558594 25.363281 139.621094 25.363281 139.6875 25.355469 C 139.757812 25.347656 139.828125 25.339844 139.90625 25.324219 L 139.90625 26.234375 C 139.714844 26.289062 139.570312 26.324219 139.46875 26.335938 C 139.367188 26.347656 139.234375 26.355469 139.058594 26.355469 C 138.636719 26.355469 138.328125 26.207031 138.136719 25.90625 C 138.039062 25.746094 137.96875 25.519531 137.929688 25.230469 C 137.679688 25.558594 137.316406 25.839844 136.847656 26.082031 C 136.378906 26.324219 135.863281 26.445312 135.296875 26.445312 C 134.617188 26.445312 134.0625 26.238281 133.632812 25.828125 C 133.203125 25.414062 132.988281 24.898438 132.988281 24.277344 C 132.988281 23.597656 133.199219 23.074219 133.621094 22.699219 C 134.046875 22.324219 134.601562 22.09375 135.289062 22.007812 Z M 141.148438 16.15625 L 142.378906 16.15625 L 142.378906 26.199219 L 141.148438 26.199219 Z M 147.046875 18.667969 C 147.871094 18.667969 148.542969 18.867188 149.058594 19.269531 C 149.578125 19.667969 149.886719 20.359375 149.992188 21.339844 L 148.796875 21.339844 C 148.722656 20.886719 148.554688 20.511719 148.296875 20.214844 C 148.039062 19.917969 147.621094 19.765625 147.046875 19.765625 C 146.261719 19.765625 145.703125 20.148438 145.363281 20.914062 C 145.144531 21.410156 145.035156 22.023438 145.035156 22.753906 C 145.035156 23.488281 145.191406 24.105469 145.5 24.605469 C 145.8125 25.105469 146.296875 25.359375 146.964844 25.359375 C 147.476562 25.359375 147.878906 25.203125 148.175781 24.890625 C 148.476562 24.578125 148.683594 24.152344 148.796875 23.609375 L 149.992188 23.609375 C 149.855469 24.578125 149.515625 25.289062 148.96875 25.738281 C 148.421875 26.1875 147.71875 26.410156 146.867188 26.410156 C 145.910156 26.410156 145.148438 26.0625 144.578125 25.363281 C 144.007812 24.664062 143.722656 23.789062 143.722656 22.738281 C 143.722656 21.453125 144.035156 20.453125 144.660156 19.738281 C 145.285156 19.023438 146.078125 18.667969 147.046875 18.667969 Z M 152.453125 18.878906 L 152.453125 23.738281 C 152.453125 24.113281 152.511719 24.417969 152.632812 24.652344 C 152.851562 25.089844 153.257812 25.308594 153.855469 25.308594 C 154.710938 25.308594 155.292969 24.925781 155.605469 24.160156 C 155.773438 23.75 155.859375 23.1875 155.859375 22.472656 L 155.859375 18.878906 L 157.085938 18.878906 L 157.085938 26.199219 L 155.925781 26.199219 L 155.9375 25.121094 C 155.78125 25.398438 155.582031 25.632812 155.34375 25.824219 C 154.875 26.207031 154.304688 26.398438 153.636719 26.398438 C 152.59375 26.398438 151.882812 26.050781 151.503906 25.351562 C 151.296875 24.976562 151.195312 24.480469 151.195312 23.855469 L 151.195312 18.878906 Z M 159.042969 16.15625 L 160.273438 16.15625 L 160.273438 26.199219 L 159.042969 26.199219 Z M 165.023438 25.40625 C 165.839844 25.40625 166.398438 25.097656 166.699219 24.480469 C 167.003906 23.863281 167.15625 23.175781 167.15625 22.417969 C 167.15625 21.734375 167.046875 21.179688 166.828125 20.75 C 166.480469 20.074219 165.882812 19.738281 165.035156 19.738281 C 164.285156 19.738281 163.738281 20.027344 163.394531 20.601562 C 163.054688 21.175781 162.882812 21.867188 162.882812 22.679688 C 162.882812 23.457031 163.054688 24.105469 163.394531 24.628906 C 163.738281 25.148438 164.28125 25.40625 165.023438 25.40625 Z M 165.070312 18.667969 C 166.011719 18.667969 166.8125 18.980469 167.464844 19.609375 C 168.113281 20.238281 168.441406 21.164062 168.441406 22.386719 C 168.441406 23.566406 168.152344 24.539062 167.578125 25.308594 C 167.003906 26.082031 166.113281 26.464844 164.90625 26.464844 C 163.898438 26.464844 163.097656 26.125 162.507812 25.445312 C 161.914062 24.761719 161.617188 23.847656 161.617188 22.699219 C 161.617188 21.46875 161.929688 20.488281 162.554688 19.761719 C 163.179688 19.03125 164.019531 18.667969 165.070312 18.667969 Z M 122.316406 15.417969 "/>
<path style="fill:none;stroke-width:1;stroke-linecap:butt;stroke-linejoin:miter;stroke:rgb(0%,0%,0%);stroke-opacity:1;stroke-miterlimit:4;" d="M 74.605438 -18 C 82.930481 -18 91.806359 -18 100.283761 -18 " transform="matrix(0.999901,0,0,0.999901,3.999604,39.998218)"/>
<path style="fill-rule:nonzero;fill:rgb(0%,0%,0%);fill-opacity:1;stroke-width:1;stroke-linecap:butt;stroke-linejoin:miter;stroke:rgb(0%,0%,0%);stroke-opacity:1;stroke-miterlimit:4;" d="M 100.357987 -21.500347 L 110.358977 -18 L 100.357987 -14.499653 Z M 100.357987 -21.500347 " transform="matrix(0.999901,0,0,0.999901,3.999604,39.998218)"/>
<path style="fill-rule:nonzero;fill:rgb(67.843139%,84.705883%,90.196079%);fill-opacity:1;stroke-width:1;stroke-linecap:butt;stroke-linejoin:miter;stroke:rgb(0%,0%,0%);stroke-opacity:1;stroke-miterlimit:4;" d="M 295.033509 -36.001782 L 209.001555 -36.001782 L 209.001555 0.00178211 L 295.033509 0.00178211 Z M 295.033509 -36.001782 " transform="matrix(0.999901,0,0,0.999901,3.999604,39.998218)"/>
<path style=" stroke:none;fill-rule:nonzero;fill:rgb(0%,0%,0%);fill-opacity:1;" d="M 226.707031 20.757812 C 227.347656 20.757812 227.851562 20.628906 228.222656 20.375 C 228.59375 20.121094 228.777344 19.660156 228.777344 18.996094 C 228.777344 18.277344 228.519531 17.792969 228 17.53125 C 227.722656 17.394531 227.351562 17.324219 226.886719 17.324219 L 223.5625 17.324219 L 223.5625 20.757812 Z M 222.203125 16.15625 L 226.851562 16.15625 C 227.617188 16.15625 228.25 16.269531 228.746094 16.492188 C 229.6875 16.921875 230.160156 17.710938 230.160156 18.863281 C 230.160156 19.464844 230.035156 19.957031 229.789062 20.339844 C 229.539062 20.722656 229.191406 21.03125 228.746094 21.261719 C 229.136719 21.421875 229.433594 21.632812 229.628906 21.894531 C 229.828125 22.152344 229.9375 22.574219 229.960938 23.15625 L 230.011719 24.503906 C 230.023438 24.886719 230.054688 25.171875 230.105469 25.359375 C 230.1875 25.675781 230.332031 25.882812 230.542969 25.972656 L 230.542969 26.199219 L 228.875 26.199219 C 228.828125 26.113281 228.792969 26 228.765625 25.863281 C 228.738281 25.726562 228.714844 25.464844 228.699219 25.070312 L 228.613281 23.394531 C 228.582031 22.738281 228.339844 22.300781 227.882812 22.078125 C 227.625 21.953125 227.214844 21.894531 226.660156 21.894531 L 223.5625 21.894531 L 223.5625 26.199219 L 222.203125 26.199219 Z M 235.035156 18.714844 C 235.554688 18.714844 236.054688 18.835938 236.542969 19.078125 C 237.03125 19.324219 237.402344 19.640625 237.660156 20.027344 C 237.90625 20.394531 238.066406 20.824219 238.152344 21.316406 C 238.222656 21.65625 238.261719 22.191406 238.261719 22.933594 L 232.894531 22.933594 C 232.917969 23.675781 233.089844 24.269531 233.417969 24.71875 C 233.746094 25.167969 234.257812 25.394531 234.945312 25.394531 C 235.585938 25.394531 236.097656 25.179688 236.480469 24.757812 C 236.699219 24.511719 236.855469 24.226562 236.949219 23.902344 L 238.15625 23.902344 C 238.125 24.171875 238.019531 24.472656 237.839844 24.800781 C 237.660156 25.132812 237.457031 25.402344 237.234375 25.613281 C 236.859375 25.976562 236.398438 26.222656 235.847656 26.347656 C 235.550781 26.421875 235.214844 26.457031 234.839844 26.457031 C 233.929688 26.457031 233.15625 26.128906 232.523438 25.464844 C 231.890625 24.800781 231.574219 23.871094 231.574219 22.679688 C 231.574219 21.503906 231.894531 20.546875 232.53125 19.816406 C 233.167969 19.082031 234.003906 18.714844 235.035156 18.714844 Z M 236.996094 21.953125 C 236.945312 21.421875 236.828125 20.996094 236.644531 20.675781 C 236.308594 20.082031 235.746094 19.785156 234.957031 19.785156 C 234.394531 19.785156 233.917969 19.992188 233.535156 20.398438 C 233.152344 20.808594 232.949219 21.324219 232.925781 21.953125 Z M 240.5 23.902344 C 240.539062 24.3125 240.640625 24.628906 240.808594 24.847656 C 241.117188 25.242188 241.65625 25.441406 242.421875 25.441406 C 242.878906 25.441406 243.277344 25.339844 243.625 25.144531 C 243.972656 24.945312 244.144531 24.636719 244.144531 24.222656 C 244.144531 23.910156 244.003906 23.667969 243.726562 23.503906 C 243.550781 23.40625 243.199219 23.289062 242.675781 23.15625 L 241.695312 22.910156 C 241.070312 22.753906 240.613281 22.582031 240.316406 22.390625 C 239.789062 22.058594 239.523438 21.597656 239.523438 21.011719 C 239.523438 20.316406 239.773438 19.757812 240.273438 19.328125 C 240.773438 18.902344 241.441406 18.6875 242.285156 18.6875 C 243.386719 18.6875 244.183594 19.011719 244.671875 19.65625 C 244.976562 20.066406 245.125 20.507812 245.117188 20.984375 L 243.953125 20.984375 C 243.929688 20.707031 243.832031 20.453125 243.660156 20.222656 C 243.375 19.902344 242.886719 19.738281 242.1875 19.738281 C 241.722656 19.738281 241.371094 19.828125 241.132812 20.003906 C 240.894531 20.183594 240.773438 20.417969 240.773438 20.710938 C 240.773438 21.027344 240.929688 21.285156 241.246094 21.476562 C 241.429688 21.589844 241.695312 21.691406 242.054688 21.777344 L 242.867188 21.972656 C 243.75 22.1875 244.34375 22.394531 244.644531 22.597656 C 245.121094 22.910156 245.359375 23.40625 245.359375 24.082031 C 245.359375 24.730469 245.113281 25.292969 244.621094 25.769531 C 244.125 26.242188 243.371094 26.480469 242.359375 26.480469 C 241.269531 26.480469 240.5 26.230469 240.046875 25.738281 C 239.59375 25.242188 239.351562 24.632812 239.320312 23.902344 Z M 248 18.878906 L 248 23.738281 C 248 24.113281 248.058594 24.417969 248.179688 24.652344 C 248.398438 25.089844 248.804688 25.308594 249.402344 25.308594 C 250.257812 25.308594 250.839844 24.925781 251.152344 24.160156 C 251.320312 23.75 251.40625 23.1875 251.40625 22.472656 L 251.40625 18.878906 L 252.632812 18.878906 L 252.632812 26.199219 L 251.472656 26.199219 L 251.484375 25.121094 C 251.328125 25.398438 251.128906 25.632812 250.890625 25.824219 C 250.421875 26.207031 249.851562 26.398438 249.183594 26.398438 C 248.140625 26.398438 247.429688 26.050781 247.050781 25.351562 C 246.84375 24.976562 246.742188 24.480469 246.742188 23.855469 L 246.742188 18.878906 Z M 254.59375 16.15625 L 255.824219 16.15625 L 255.824219 26.199219 L 254.59375 26.199219 Z M 257.910156 16.832031 L 259.152344 16.832031 L 259.152344 18.878906 L 260.324219 18.878906 L 260.324219 19.882812 L 259.152344 19.882812 L 259.152344 24.660156 C 259.152344 24.917969 259.242188 25.085938 259.414062 25.175781 C 259.511719 25.222656 259.667969 25.25 259.894531 25.25 C 259.953125 25.25 260.015625 25.246094 260.082031 25.246094 C 260.152344 25.242188 260.230469 25.238281 260.324219 25.230469 L 260.324219 26.199219 C 260.183594 26.238281 260.035156 26.269531 259.882812 26.289062 C 259.730469 26.308594 259.566406 26.316406 259.386719 26.316406 C 258.8125 26.316406 258.421875 26.167969 258.21875 25.875 C 258.011719 25.582031 257.910156 25.199219 257.910156 24.730469 L 257.910156 19.882812 L 256.917969 19.882812 L 256.917969 18.878906 L 257.910156 18.878906 Z M 262.496094 24.25 C 262.496094 24.605469 262.628906 24.886719 262.886719 25.089844 C 263.148438 25.296875 263.457031 25.398438 263.808594 25.398438 C 264.242188 25.398438 264.664062 25.300781 265.066406 25.097656 C 265.75 24.765625 266.09375 24.222656 266.09375 23.464844 L 266.09375 22.472656 C 265.941406 22.570312 265.75 22.648438 265.511719 22.714844 C 265.277344 22.777344 265.042969 22.824219 264.816406 22.847656 L 264.070312 22.945312 C 263.625 23.003906 263.289062 23.097656 263.066406 23.226562 C 262.6875 23.441406 262.496094 23.78125 262.496094 24.25 Z M 265.480469 21.761719 C 265.761719 21.726562 265.949219 21.609375 266.046875 21.40625 C 266.101562 21.296875 266.128906 21.140625 266.128906 20.933594 C 266.128906 20.515625 265.980469 20.210938 265.679688 20.023438 C 265.382812 19.832031 264.953125 19.738281 264.398438 19.738281 C 263.753906 19.738281 263.300781 19.914062 263.03125 20.257812 C 262.878906 20.449219 262.78125 20.734375 262.738281 21.113281 L 261.589844 21.113281 C 261.613281 20.210938 261.90625 19.582031 262.46875 19.230469 C 263.03125 18.878906 263.683594 18.699219 264.425781 18.699219 C 265.285156 18.699219 265.988281 18.863281 266.523438 19.191406 C 267.058594 19.519531 267.324219 20.03125 267.324219 20.722656 L 267.324219 24.941406 C 267.324219 25.070312 267.351562 25.171875 267.402344 25.25 C 267.457031 25.328125 267.566406 25.363281 267.734375 25.363281 C 267.789062 25.363281 267.851562 25.363281 267.917969 25.355469 C 267.988281 25.347656 268.058594 25.339844 268.136719 25.324219 L 268.136719 26.234375 C 267.945312 26.289062 267.800781 26.324219 267.699219 26.335938 C 267.597656 26.347656 267.464844 26.355469 267.289062 26.355469 C 266.867188 26.355469 266.558594 26.207031 266.367188 25.90625 C 266.265625 25.746094 266.195312 25.519531 266.15625 25.230469 C 265.90625 25.558594 265.542969 25.839844 265.074219 26.082031 C 264.605469 26.324219 264.089844 26.445312 263.523438 26.445312 C 262.84375 26.445312 262.289062 26.238281 261.859375 25.828125 C 261.429688 25.414062 261.214844 24.898438 261.214844 24.277344 C 261.214844 23.597656 261.425781 23.074219 261.847656 22.699219 C 262.273438 22.324219 262.828125 22.09375 263.515625 22.007812 Z M 270.117188 22.625 C 270.117188 23.410156 270.285156 24.0625 270.617188 24.59375 C 270.949219 25.121094 271.484375 25.386719 272.21875 25.386719 C 272.789062 25.386719 273.253906 25.140625 273.621094 24.652344 C 273.988281 24.160156 274.171875 23.457031 274.171875 22.542969 C 274.171875 21.617188 273.984375 20.933594 273.605469 20.488281 C 273.226562 20.042969 272.761719 19.820312 272.203125 19.820312 C 271.585938 19.820312 271.082031 20.058594 270.695312 20.53125 C 270.3125 21.003906 270.117188 21.703125 270.117188 22.625 Z M 271.972656 18.746094 C 272.53125 18.746094 273 18.867188 273.378906 19.105469 C 273.597656 19.242188 273.847656 19.480469 274.125 19.820312 L 274.125 16.121094 L 275.308594 16.121094 L 275.308594 26.199219 L 274.199219 26.199219 L 274.199219 25.179688 C 273.914062 25.632812 273.574219 25.957031 273.179688 26.160156 C 272.789062 26.359375 272.339844 26.457031 271.835938 26.457031 C 271.019531 26.457031 270.3125 26.117188 269.714844 25.429688 C 269.117188 24.746094 268.820312 23.832031 268.820312 22.691406 C 268.820312 21.625 269.09375 20.703125 269.636719 19.921875 C 270.179688 19.140625 270.960938 18.746094 271.972656 18.746094 Z M 280.03125 25.40625 C 280.847656 25.40625 281.40625 25.097656 281.707031 24.480469 C 282.011719 23.863281 282.164062 23.175781 282.164062 22.417969 C 282.164062 21.734375 282.054688 21.179688 281.835938 20.75 C 281.488281 20.074219 280.890625 19.738281 280.042969 19.738281 C 279.292969 19.738281 278.746094 20.027344 278.402344 20.601562 C 278.0625 21.175781 277.890625 21.867188 277.890625 22.679688 C 277.890625 23.457031 278.0625 24.105469 278.402344 24.628906 C 278.746094 25.148438 279.289062 25.40625 280.03125 25.40625 Z M 280.078125 18.667969 C 281.019531 18.667969 281.820312 18.980469 282.472656 19.609375 C 283.121094 20.238281 283.449219 21.164062 283.449219 22.386719 C 283.449219 23.566406 283.160156 24.539062 282.585938 25.308594 C 282.011719 26.082031 281.121094 26.464844 279.914062 26.464844 C 278.90625 26.464844 278.105469 26.125 277.515625 25.445312 C 276.921875 24.761719 276.625 23.847656 276.625 22.699219 C 276.625 21.46875 276.9375 20.488281 277.5625 19.761719 C 278.1875 19.03125 279.027344 18.667969 280.078125 18.667969 Z M 285.644531 23.902344 C 285.683594 24.3125 285.785156 24.628906 285.953125 24.847656 C 286.261719 25.242188 286.800781 25.441406 287.566406 25.441406 C 288.023438 25.441406 288.421875 25.339844 288.769531 25.144531 C 289.117188 24.945312 289.289062 24.636719 289.289062 24.222656 C 289.289062 23.910156 289.148438 23.667969 288.871094 23.503906 C 288.695312 23.40625 288.34375 23.289062 287.820312 23.15625 L 286.839844 22.910156 C 286.214844 22.753906 285.757812 22.582031 285.460938 22.390625 C 284.933594 22.058594 284.667969 21.597656 284.667969 21.011719 C 284.667969 20.316406 284.917969 19.757812 285.417969 19.328125 C 285.917969 18.902344 286.585938 18.6875 287.429688 18.6875 C 288.53125 18.6875 289.328125 19.011719 289.816406 19.65625 C 290.121094 20.066406 290.269531 20.507812 290.261719 20.984375 L 289.097656 20.984375 C 289.074219 20.707031 288.976562 20.453125 288.804688 20.222656 C 288.519531 19.902344 288.03125 19.738281 287.332031 19.738281 C 286.867188 19.738281 286.515625 19.828125 286.277344 20.003906 C 286.039062 20.183594 285.917969 20.417969 285.917969 20.710938 C 285.917969 21.027344 286.074219 21.285156 286.390625 21.476562 C 286.574219 21.589844 286.839844 21.691406 287.199219 21.777344 L 288.011719 21.972656 C 288.894531 22.1875 289.488281 22.394531 289.789062 22.597656 C 290.265625 22.910156 290.503906 23.40625 290.503906 24.082031 C 290.503906 24.730469 290.257812 25.292969 289.765625 25.769531 C 289.269531 26.242188 288.515625 26.480469 287.503906 26.480469 C 286.414062 26.480469 285.644531 26.230469 285.191406 25.738281 C 284.738281 25.242188 284.496094 24.632812 284.464844 23.902344 Z M 220.972656 15.417969 "/>
<path style="fill:none;stroke-width:1;stroke-linecap:butt;stroke-linejoin:miter;stroke:rgb(0%,0%,0%);stroke-opacity:1;stroke-miterlimit:4;" d="M 172.997991 -18 C 180.96753 -18 189.757462 -18 198.492702 -18 " transform="matrix(0.999901,0,0,0.999901,3.999604,39.998218)"/>
<path style="fill-rule:nonzero;fill:rgb(0%,0%,0%);fill-opacity:1;stroke-width:1;stroke-linecap:butt;stroke-linejoin:miter;stroke:rgb(0%,0%,0%);stroke-opacity:1;stroke-miterlimit:4;" d="M 198.668501 -21.500347 L 208.669491 -18 L 198.668501 -14.499653 Z M 198.668501 -21.500347 " transform="matrix(0.999901,0,0,0.999901,3.999604,39.998218)"/>
</g>
</svg>
