<?xml version="1.0" encoding="UTF-8"?>
<svg xmlns="http://www.w3.org/2000/svg" xmlns:xlink="http://www.w3.org/1999/xlink" width="284pt" height="44pt" viewBox="0 0 284 44" version="1.1">
<g id="surface48">
<path style=" stroke:none;fill-rule:nonzero;fill:rgb(100%,100%,100%);fill-opacity:1;" d="M 0 43.96875 L 0 0.03125 L 284.003906 0.03125 L 284.003906 43.96875 Z M 0 43.96875 "/>
<path style="fill-rule:nonzero;fill:rgb(100%,100%,100%);fill-opacity:1;stroke-width:1;stroke-linecap:butt;stroke-linejoin:miter;stroke:rgb(0%,0%,0%);stroke-opacity:1;stroke-miterlimit:4;" d="M 57.443639 -36.00125 L 0.185427 -36.00125 L 0.185427 0.00124955 L 57.443639 0.00124955 Z M 57.443639 -36.00125 " transform="matrix(0.998629,0,0,0.998629,3.994514,39.975315)"/>
<path style=" stroke:none;fill-rule:nonzero;fill:rgb(0%,0%,0%);fill-opacity:1;" d="M 13.042969 16.167969 L 14.648438 16.167969 L 19.714844 24.292969 L 19.714844 16.167969 L 21.007812 16.167969 L 21.007812 26.199219 L 19.480469 26.199219 L 14.34375 18.078125 L 14.34375 26.199219 L 13.042969 26.199219 Z M 33.707031 20.585938 L 33.707031 21.734375 L 26.589844 21.734375 L 26.589844 20.585938 Z M 33.707031 23.511719 L 33.707031 24.683594 L 26.589844 24.683594 L 26.589844 23.511719 Z M 39.347656 19.277344 L 39.347656 18.332031 C 40.234375 18.246094 40.855469 18.101562 41.207031 17.898438 C 41.554688 17.699219 41.816406 17.21875 41.988281 16.460938 L 42.960938 16.460938 L 42.960938 26.199219 L 41.648438 26.199219 L 41.648438 19.277344 Z M 49.570312 16.421875 C 50.832031 16.421875 51.746094 16.945312 52.3125 17.984375 C 52.746094 18.789062 52.964844 19.894531 52.964844 21.296875 C 52.964844 22.625 52.765625 23.722656 52.375 24.59375 C 51.800781 25.839844 50.859375 26.460938 49.5625 26.460938 C 48.386719 26.460938 47.511719 25.957031 46.9375 24.933594 C 46.460938 24.082031 46.222656 22.941406 46.222656 21.507812 C 46.222656 20.398438 46.367188 19.445312 46.652344 18.644531 C 47.1875 17.164062 48.160156 16.421875 49.570312 16.421875 Z M 49.554688 25.34375 C 50.1875 25.34375 50.695312 25.0625 51.074219 24.496094 C 51.453125 23.933594 51.644531 22.882812 51.644531 21.34375 C 51.644531 20.234375 51.503906 19.320312 51.230469 18.601562 C 50.957031 17.882812 50.429688 17.53125 49.644531 17.53125 C 48.917969 17.53125 48.390625 17.867188 48.054688 18.546875 C 47.71875 19.230469 47.550781 20.230469 47.550781 21.554688 C 47.550781 22.554688 47.660156 23.355469 47.875 23.957031 C 48.203125 24.882812 48.761719 25.34375 49.554688 25.34375 Z M 11.980469 15.429688 "/>
<path style="fill-rule:nonzero;fill:rgb(100%,100%,100%);fill-opacity:1;stroke-width:1;stroke-linecap:butt;stroke-linejoin:miter;stroke:rgb(0%,0%,0%);stroke-opacity:1;stroke-miterlimit:4;" d="M 171.979621 -36.00125 L 93.508724 -36.00125 L 93.508724 0.00124955 L 171.979621 0.00124955 Z M 171.979621 -36.00125 " transform="matrix(0.998629,0,0,0.998629,3.994514,39.975315)"/>
<path style=" stroke:none;fill-rule:nonzero;fill:rgb(0%,0%,0%);fill-opacity:1;" d="M 108.996094 16.167969 L 116.304688 16.167969 L 116.304688 17.398438 L 110.320312 17.398438 L 110.320312 20.445312 L 115.855469 20.445312 L 115.855469 21.601562 L 110.320312 21.601562 L 110.320312 25.003906 L 116.410156 25.003906 L 116.410156 26.199219 L 108.996094 26.199219 Z M 120.851562 18.675781 C 121.671875 18.675781 122.34375 18.875 122.859375 19.277344 C 123.378906 19.675781 123.6875 20.367188 123.789062 21.34375 L 122.597656 21.34375 C 122.523438 20.890625 122.355469 20.519531 122.097656 20.222656 C 121.839844 19.925781 121.421875 19.773438 120.851562 19.773438 C 120.066406 19.773438 119.507812 20.15625 119.167969 20.917969 C 118.949219 21.414062 118.839844 22.027344 118.839844 22.757812 C 118.839844 23.488281 118.996094 24.105469 119.304688 24.605469 C 119.617188 25.105469 120.101562 25.359375 120.769531 25.359375 C 121.277344 25.359375 121.679688 25.203125 121.976562 24.890625 C 122.277344 24.578125 122.484375 24.152344 122.597656 23.609375 L 123.789062 23.609375 C 123.65625 24.578125 123.316406 25.289062 122.769531 25.738281 C 122.222656 26.1875 121.519531 26.40625 120.671875 26.40625 C 119.714844 26.40625 118.953125 26.0625 118.382812 25.363281 C 117.816406 24.664062 117.53125 23.789062 117.53125 22.742188 C 117.53125 21.457031 117.84375 20.460938 118.464844 19.746094 C 119.089844 19.03125 119.882812 18.675781 120.851562 18.675781 Z M 126.25 18.886719 L 126.25 23.738281 C 126.25 24.113281 126.308594 24.417969 126.429688 24.652344 C 126.644531 25.089844 127.050781 25.308594 127.648438 25.308594 C 128.503906 25.308594 129.085938 24.925781 129.398438 24.160156 C 129.5625 23.75 129.648438 23.191406 129.648438 22.476562 L 129.648438 18.886719 L 130.875 18.886719 L 130.875 26.199219 L 129.714844 26.199219 L 129.726562 25.121094 C 129.570312 25.398438 129.375 25.632812 129.136719 25.824219 C 128.667969 26.207031 128.097656 26.394531 127.429688 26.394531 C 126.390625 26.394531 125.679688 26.050781 125.300781 25.351562 C 125.09375 24.976562 124.992188 24.480469 124.992188 23.855469 L 124.992188 18.886719 Z M 133.734375 24.25 C 133.734375 24.605469 133.867188 24.886719 134.125 25.089844 C 134.386719 25.296875 134.695312 25.398438 135.046875 25.398438 C 135.476562 25.398438 135.898438 25.300781 136.300781 25.097656 C 136.984375 24.765625 137.328125 24.222656 137.328125 23.464844 L 137.328125 22.476562 C 137.175781 22.574219 136.984375 22.652344 136.746094 22.71875 C 136.511719 22.78125 136.277344 22.828125 136.050781 22.851562 L 135.304688 22.949219 C 134.863281 23.007812 134.527344 23.101562 134.304688 23.230469 C 133.925781 23.441406 133.734375 23.78125 133.734375 24.25 Z M 136.714844 21.765625 C 136.996094 21.730469 137.183594 21.613281 137.28125 21.410156 C 137.335938 21.300781 137.363281 21.144531 137.363281 20.9375 C 137.363281 20.523438 137.214844 20.21875 136.914062 20.03125 C 136.617188 19.839844 136.1875 19.746094 135.632812 19.746094 C 134.992188 19.746094 134.539062 19.921875 134.269531 20.265625 C 134.117188 20.457031 134.019531 20.738281 133.976562 21.117188 L 132.828125 21.117188 C 132.851562 20.21875 133.144531 19.589844 133.707031 19.238281 C 134.269531 18.886719 134.921875 18.707031 135.660156 18.707031 C 136.519531 18.707031 137.222656 18.871094 137.757812 19.199219 C 138.289062 19.527344 138.554688 20.039062 138.554688 20.726562 L 138.554688 24.941406 C 138.554688 25.070312 138.582031 25.171875 138.632812 25.25 C 138.6875 25.328125 138.796875 25.363281 138.964844 25.363281 C 139.019531 25.363281 139.082031 25.363281 139.148438 25.355469 C 139.21875 25.347656 139.289062 25.339844 139.367188 25.324219 L 139.367188 26.234375 C 139.175781 26.285156 139.03125 26.320312 138.929688 26.332031 C 138.828125 26.34375 138.695312 26.351562 138.519531 26.351562 C 138.097656 26.351562 137.792969 26.207031 137.601562 25.90625 C 137.5 25.746094 137.429688 25.519531 137.390625 25.230469 C 137.140625 25.558594 136.777344 25.839844 136.308594 26.082031 C 135.839844 26.320312 135.324219 26.441406 134.761719 26.441406 C 134.082031 26.441406 133.527344 26.238281 133.097656 25.828125 C 132.667969 25.414062 132.453125 24.898438 132.453125 24.277344 C 132.453125 23.597656 132.664062 23.078125 133.085938 22.703125 C 133.511719 22.328125 134.066406 22.097656 134.753906 22.011719 Z M 143.390625 18.675781 C 144.210938 18.675781 144.882812 18.875 145.398438 19.277344 C 145.917969 19.675781 146.226562 20.367188 146.332031 21.34375 L 145.136719 21.34375 C 145.0625 20.890625 144.894531 20.519531 144.636719 20.222656 C 144.378906 19.925781 143.960938 19.773438 143.390625 19.773438 C 142.605469 19.773438 142.046875 20.15625 141.707031 20.917969 C 141.488281 21.414062 141.378906 22.027344 141.378906 22.757812 C 141.378906 23.488281 141.535156 24.105469 141.84375 24.605469 C 142.15625 25.105469 142.640625 25.359375 143.308594 25.359375 C 143.816406 25.359375 144.21875 25.203125 144.515625 24.890625 C 144.816406 24.578125 145.023438 24.152344 145.136719 23.609375 L 146.332031 23.609375 C 146.195312 24.578125 145.855469 25.289062 145.308594 25.738281 C 144.761719 26.1875 144.058594 26.40625 143.210938 26.40625 C 142.253906 26.40625 141.492188 26.0625 140.921875 25.363281 C 140.355469 24.664062 140.070312 23.789062 140.070312 22.742188 C 140.070312 21.457031 140.382812 20.460938 141.003906 19.746094 C 141.628906 19.03125 142.421875 18.675781 143.390625 18.675781 Z M 147.558594 18.917969 L 148.808594 18.917969 L 148.808594 26.199219 L 147.558594 26.199219 Z M 147.558594 16.167969 L 148.808594 16.167969 L 148.808594 17.5625 L 147.558594 17.5625 Z M 153.566406 25.40625 C 154.382812 25.40625 154.941406 25.097656 155.238281 24.480469 C 155.542969 23.863281 155.695312 23.179688 155.695312 22.421875 C 155.695312 21.738281 155.585938 21.183594 155.367188 20.753906 C 155.023438 20.082031 154.425781 19.746094 153.578125 19.746094 C 152.828125 19.746094 152.28125 20.035156 151.941406 20.605469 C 151.601562 21.179688 151.429688 21.871094 151.429688 22.683594 C 151.429688 23.457031 151.601562 24.105469 151.941406 24.628906 C 152.28125 25.148438 152.824219 25.40625 153.566406 25.40625 Z M 153.613281 18.675781 C 154.554688 18.675781 155.351562 18.988281 156.003906 19.617188 C 156.652344 20.246094 156.980469 21.167969 156.980469 22.390625 C 156.980469 23.566406 156.691406 24.539062 156.117188 25.308594 C 155.542969 26.082031 154.65625 26.460938 153.449219 26.460938 C 152.441406 26.460938 151.644531 26.125 151.054688 25.445312 C 150.460938 24.761719 150.164062 23.847656 150.164062 22.703125 C 150.164062 21.472656 150.476562 20.496094 151.101562 19.769531 C 151.726562 19.039062 152.5625 18.675781 153.613281 18.675781 Z M 155.039062 15.945312 L 153.21875 17.914062 L 152.273438 17.914062 L 153.523438 15.945312 Z M 158.441406 18.886719 L 159.609375 18.886719 L 159.609375 19.925781 C 159.957031 19.496094 160.324219 19.1875 160.710938 19.003906 C 161.09375 18.816406 161.523438 18.722656 162 18.722656 C 163.039062 18.722656 163.734375 19.082031 164.101562 19.808594 C 164.300781 20.207031 164.402344 20.769531 164.402344 21.507812 L 164.402344 26.199219 L 163.152344 26.199219 L 163.152344 21.589844 C 163.152344 21.140625 163.089844 20.78125 162.957031 20.511719 C 162.738281 20.058594 162.339844 19.828125 161.765625 19.828125 C 161.472656 19.828125 161.234375 19.859375 161.050781 19.917969 C 160.710938 20.019531 160.417969 20.21875 160.164062 20.519531 C 159.960938 20.757812 159.824219 21.007812 159.765625 21.265625 C 159.703125 21.523438 159.671875 21.890625 159.671875 22.367188 L 159.671875 26.199219 L 158.441406 26.199219 Z M 107.800781 15.429688 "/>
<path style="fill:none;stroke-width:1;stroke-linecap:butt;stroke-linejoin:miter;stroke:rgb(0%,0%,0%);stroke-opacity:1;stroke-miterlimit:4;" d="M 57.486667 -18 C 65.435068 -18 74.294874 -18 83.072537 -18 " transform="matrix(0.998629,0,0,0.998629,3.994514,39.975315)"/>
<path style="fill-rule:nonzero;fill:rgb(0%,0%,0%);fill-opacity:1;stroke-width:1;stroke-linecap:butt;stroke-linejoin:miter;stroke:rgb(0%,0%,0%);stroke-opacity:1;stroke-miterlimit:4;" d="M 83.272029 -21.500895 L 93.274027 -18 L 83.272029 -14.499105 Z M 83.272029 -21.500895 " transform="matrix(0.998629,0,0,0.998629,3.994514,39.975315)"/>
<path style="fill-rule:nonzero;fill:rgb(100%,100%,100%);fill-opacity:1;stroke-width:1;stroke-linecap:butt;stroke-linejoin:miter;stroke:rgb(0%,0%,0%);stroke-opacity:1;stroke-miterlimit:4;" d="M 276.161559 -36.00125 L 208.095557 -36.00125 L 208.095557 0.00124955 L 276.161559 0.00124955 Z M 276.161559 -36.00125 " transform="matrix(0.998629,0,0,0.998629,3.994514,39.975315)"/>
<path style=" stroke:none;fill-rule:nonzero;fill:rgb(0%,0%,0%);fill-opacity:1;" d="M 221.484375 26.199219 L 219.847656 26.199219 L 223.433594 21.054688 L 220.070312 16.167969 L 221.769531 16.167969 L 224.328125 20.007812 L 226.867188 16.167969 L 228.488281 16.167969 L 225.121094 21.054688 L 228.652344 26.199219 L 226.964844 26.199219 L 224.261719 22.074219 Z M 240.511719 20.585938 L 240.511719 21.734375 L 233.394531 21.734375 L 233.394531 20.585938 Z M 240.511719 23.511719 L 240.511719 24.683594 L 233.394531 24.683594 L 233.394531 23.511719 Z M 246.152344 19.277344 L 246.152344 18.332031 C 247.039062 18.246094 247.660156 18.101562 248.011719 17.898438 C 248.363281 17.699219 248.625 17.21875 248.796875 16.460938 L 249.765625 16.460938 L 249.765625 26.199219 L 248.457031 26.199219 L 248.457031 19.277344 Z M 253.027344 26.199219 C 253.074219 25.355469 253.246094 24.621094 253.550781 23.996094 C 253.855469 23.375 254.445312 22.808594 255.320312 22.300781 L 256.632812 21.539062 C 257.21875 21.199219 257.628906 20.90625 257.867188 20.664062 C 258.238281 20.292969 258.425781 19.859375 258.425781 19.371094 C 258.425781 18.800781 258.253906 18.347656 257.914062 18.015625 C 257.574219 17.683594 257.121094 17.515625 256.550781 17.515625 C 255.707031 17.515625 255.125 17.832031 254.800781 18.46875 C 254.628906 18.808594 254.535156 19.285156 254.519531 19.890625 L 253.265625 19.890625 C 253.28125 19.039062 253.4375 18.34375 253.738281 17.804688 C 254.269531 16.859375 255.207031 16.386719 256.558594 16.386719 C 257.675781 16.386719 258.492188 16.691406 259.011719 17.296875 C 259.527344 17.898438 259.785156 18.574219 259.785156 19.316406 C 259.785156 20.101562 259.511719 20.765625 258.960938 21.320312 C 258.640625 21.644531 258.070312 22.039062 257.25 22.5 L 256.3125 23.015625 C 255.867188 23.261719 255.515625 23.496094 255.257812 23.71875 C 254.804688 24.113281 254.519531 24.554688 254.402344 25.035156 L 259.738281 25.035156 L 259.738281 26.199219 Z M 261.53125 27.625 C 261.84375 27.570312 262.066406 27.347656 262.191406 26.960938 C 262.261719 26.757812 262.296875 26.558594 262.296875 26.367188 C 262.296875 26.335938 262.292969 26.304688 262.292969 26.28125 C 262.289062 26.261719 262.285156 26.230469 262.273438 26.199219 L 261.53125 26.199219 L 261.53125 24.707031 L 262.992188 24.707031 L 262.992188 26.089844 C 262.992188 26.628906 262.882812 27.105469 262.664062 27.515625 C 262.445312 27.925781 262.066406 28.179688 261.53125 28.273438 Z M 265.976562 23.703125 C 266.058594 24.40625 266.382812 24.890625 266.953125 25.160156 C 267.246094 25.296875 267.582031 25.363281 267.964844 25.363281 C 268.695312 25.363281 269.230469 25.132812 269.582031 24.667969 C 269.933594 24.203125 270.109375 23.6875 270.109375 23.125 C 270.109375 22.441406 269.898438 21.914062 269.480469 21.539062 C 269.0625 21.167969 268.570312 20.980469 267.984375 20.980469 C 267.5625 20.980469 267.199219 21.0625 266.894531 21.226562 C 266.589844 21.390625 266.332031 21.617188 266.121094 21.910156 L 265.054688 21.847656 L 265.800781 16.585938 L 270.878906 16.585938 L 270.878906 17.769531 L 266.722656 17.769531 L 266.304688 20.492188 C 266.53125 20.320312 266.746094 20.1875 266.953125 20.101562 C 267.316406 19.953125 267.738281 19.878906 268.21875 19.878906 C 269.113281 19.878906 269.871094 20.167969 270.496094 20.742188 C 271.121094 21.320312 271.433594 22.054688 271.433594 22.941406 C 271.433594 23.863281 271.148438 24.679688 270.574219 25.386719 C 270.003906 26.09375 269.089844 26.441406 267.839844 26.441406 C 267.042969 26.441406 266.339844 26.222656 265.730469 25.773438 C 265.117188 25.324219 264.773438 24.632812 264.703125 23.703125 Z M 219.558594 15.429688 "/>
<path style="fill:none;stroke-width:1;stroke-linecap:butt;stroke-linejoin:miter;stroke:rgb(0%,0%,0%);stroke-opacity:1;stroke-miterlimit:4;" d="M 171.924858 -18 C 180.291802 -18 189.186813 -18 197.737602 -18 " transform="matrix(0.998629,0,0,0.998629,3.994514,39.975315)"/>
<path style="fill-rule:nonzero;fill:rgb(0%,0%,0%);fill-opacity:1;stroke-width:1;stroke-linecap:butt;stroke-linejoin:miter;stroke:rgb(0%,0%,0%);stroke-opacity:1;stroke-miterlimit:4;" d="M 197.929271 -21.500895 L 207.931269 -18 L 197.929271 -14.499105 Z M 197.929271 -21.500895 " transform="matrix(0.998629,0,0,0.998629,3.994514,39.975315)"/>
</g>
</svg>
